<svg xmlns="http://www.w3.org/2000/svg" xmlns:xlink="http://www.w3.org/1999/xlink" width="2000" zoomAndPan="magnify" viewBox="0 0 1500 1499.999933" height="2000" preserveAspectRatio="xMidYMid meet" version="1.0"><defs><g/><clipPath id="0587316fb9"><path d="M 58.554688 62.867188 L 1429.816406 62.867188 L 1429.816406 1434.132812 L 58.554688 1434.132812 Z M 58.554688 62.867188 " clip-rule="nonzero"/></clipPath><clipPath id="ec78bef005"><path d="M 744.1875 62.867188 C 365.523438 62.867188 58.554688 369.835938 58.554688 748.5 C 58.554688 1127.164062 365.523438 1434.132812 744.1875 1434.132812 C 1122.847656 1434.132812 1429.816406 1127.164062 1429.816406 748.5 C 1429.816406 369.835938 1122.847656 62.867188 744.1875 62.867188 Z M 744.1875 62.867188 " clip-rule="nonzero"/></clipPath><clipPath id="4c703def98"><path d="M 0.554688 0.867188 L 1371.816406 0.867188 L 1371.816406 1372.132812 L 0.554688 1372.132812 Z M 0.554688 0.867188 " clip-rule="nonzero"/></clipPath><clipPath id="fc4979b237"><path d="M 686.1875 0.867188 C 307.523438 0.867188 0.554688 307.835938 0.554688 686.5 C 0.554688 1065.164062 307.523438 1372.132812 686.1875 1372.132812 C 1064.847656 1372.132812 1371.816406 1065.164062 1371.816406 686.5 C 1371.816406 307.835938 1064.847656 0.867188 686.1875 0.867188 Z M 686.1875 0.867188 " clip-rule="nonzero"/></clipPath><clipPath id="d0101da0fc"><rect x="0" width="1372" y="0" height="1373"/></clipPath><clipPath id="53de4a11d5"><rect x="0" width="1466" y="0" height="1321"/></clipPath><clipPath id="f177409561"><rect x="0" width="682" y="0" height="295"/></clipPath></defs><g clip-path="url(#0587316fb9)"><g clip-path="url(#ec78bef005)"><g transform="matrix(1, 0, 0, 1, 58, 62)"><g clip-path="url(#d0101da0fc)"><g clip-path="url(#4c703def98)"><g clip-path="url(#fc4979b237)"><path fill="#fcfcfa" d="M 0.554688 0.867188 L 1371.816406 0.867188 L 1371.816406 1372.132812 L 0.554688 1372.132812 Z M 0.554688 0.867188 " fill-opacity="1" fill-rule="nonzero"/></g></g></g></g></g></g><path fill="#94cce5" d="M 639.570312 1272.429688 C 560.164062 1257.277344 494.929688 1232.527344 437.394531 1195.722656 C 393.503906 1167.644531 333.703125 1109.019531 319.074219 1079.734375 C 298.257812 1038.054688 312.390625 1015.199219 347.597656 1033.609375 C 354.199219 1037.0625 379.382812 1058.703125 403.5625 1081.703125 C 462.9375 1138.183594 509.359375 1172.070312 562.78125 1197.929688 C 634.703125 1232.738281 682.105469 1243.136719 771.730469 1243.761719 C 855.710938 1244.347656 900.980469 1235.941406 953.066406 1210.097656 C 994.660156 1189.460938 1005.25 1177.582031 1005.390625 1151.386719 C 1005.851562 1065.945312 1136.578125 944.90625 1228.398438 944.90625 C 1254.539062 944.90625 1261.105469 947.125 1274.433594 960.449219 C 1319.875 1005.890625 1300.660156 1092.273438 1228.496094 1166.964844 C 1171.960938 1225.480469 1111.664062 1246.4375 1052.960938 1227.96875 L 1022.675781 1218.445312 L 961.359375 1238.875 C 927.636719 1250.113281 886.007812 1262.867188 868.855469 1267.21875 C 824.296875 1278.527344 687.773438 1281.628906 639.570312 1272.429688 Z M 1161.285156 1190.882812 C 1208.550781 1167.21875 1269.03125 1089.851562 1269.03125 1053.050781 C 1269.03125 1046.890625 1261.871094 1056.332031 1252.734375 1074.535156 C 1229.402344 1121.023438 1178.1875 1172.628906 1135.859375 1192.300781 C 1108.230469 1205.144531 1105.230469 1207.640625 1120.667969 1204.945312 C 1131.246094 1203.097656 1149.523438 1196.769531 1161.285156 1190.882812 Z M 738.757812 1105.679688 C 680.175781 1100.40625 623.949219 1082.339844 578.285156 1054.117188 C 551.089844 1037.308594 559.347656 1036.039062 593.675781 1051.75 C 666.839844 1085.226562 774.730469 1094.699219 851.410156 1074.371094 C 885.621094 1065.304688 959.863281 1032.265625 988.785156 1013.238281 C 996.339844 1008.269531 991.394531 1014.355469 977.792969 1026.765625 C 920.566406 1078.980469 818.0625 1112.820312 738.757812 1105.679688 Z M 1231.054688 544.253906 C 1225.277344 538.476562 1202.253906 505.714844 1179.886719 471.445312 C 1157.519531 437.175781 1124.996094 393.800781 1107.613281 375.054688 C 1015.992188 276.261719 888.777344 219.773438 757.992188 219.8125 C 673.230469 219.839844 637.167969 232.710938 637.042969 262.996094 C 636.984375 276.023438 632.394531 278.917969 583.917969 296.453125 C 521.472656 319.046875 464.292969 355.0625 413.089844 404.046875 C 376.648438 438.910156 367.84375 444.695312 367.84375 433.789062 C 367.84375 422.46875 460.484375 336.996094 495.808594 315.722656 C 515.878906 303.632812 532.390625 290.652344 532.5 286.871094 C 532.777344 277.070312 531.566406 277.515625 487.71875 303.359375 C 465.269531 316.589844 426.769531 347.671875 398.894531 375.0625 C 369.003906 404.4375 347.714844 421.433594 344.648438 418.363281 C 336.488281 410.203125 431.664062 318.195312 479.117188 288.367188 C 516.585938 264.816406 529.929688 252.527344 518.027344 252.527344 C 510.222656 252.527344 451.601562 288.15625 422.792969 310.410156 C 406.171875 323.25 376.59375 350.382812 357.0625 370.707031 C 315.121094 414.355469 305.152344 408.65625 344.410156 363.46875 C 375.449219 327.75 421.082031 289.285156 470.875 256.871094 C 501.933594 236.652344 512.835938 225.054688 500.773438 225.054688 C 493.5 225.054688 433.195312 262.675781 402.316406 286.476562 C 386.519531 298.652344 357.507812 325.667969 337.847656 346.511719 C 318.183594 367.355469 299.492188 384.410156 296.3125 384.410156 C 277.277344 384.410156 358.503906 296.746094 419.828125 251.105469 C 467.230469 215.828125 509.621094 192.710938 565.472656 171.6875 L 601.144531 158.261719 L 610.328125 169.605469 C 625.839844 188.761719 642.121094 191.460938 709 185.949219 C 894.703125 170.640625 1067.710938 237.203125 1191.554688 371.609375 C 1252.558594 437.808594 1289.183594 522.828125 1266.484375 545.53125 C 1254.445312 557.570312 1243.996094 557.195312 1231.054688 544.253906 Z M 527.199219 448.035156 C 551.402344 421.472656 603.859375 390.480469 649.972656 375.503906 C 712.355469 355.238281 792.136719 354.066406 851.410156 372.542969 C 890.125 384.609375 953.558594 415.972656 948.824219 420.707031 C 947.640625 421.890625 930.867188 416.433594 911.546875 408.585938 C 794.820312 361.152344 649.519531 373.019531 553.285156 437.839844 C 516.558594 462.574219 512.507812 464.160156 527.199219 448.035156 Z M 527.199219 448.035156 " fill-opacity="1" fill-rule="nonzero"/><g transform="matrix(1, 0, 0, 1, 0, 0.000000000000112861)"><g clip-path="url(#53de4a11d5)"><g fill="#000000" fill-opacity="0"><g transform="translate(279.765074, 1024.004618)"><g><path d="M 173.277344 -58.238281 C 209.9375 -98.75 212.503906 -146.003906 195.300781 -201.761719 C 167.664062 -290.410156 93.144531 -395.355469 66.089844 -493.527344 C 66.351562 -495.296875 65.578125 -496.667969 64.105469 -498 C 57.84375 -503.664062 34.464844 -500.035156 23.464844 -487.882812 C 19.132812 -483.09375 16.976562 -477.007812 18.730469 -470.0625 C 36.316406 -392.519531 86.730469 -192.824219 56.402344 -159.308594 C 52.402344 -154.890625 48.527344 -155.046875 44.472656 -158.714844 C 17.65625 -181.640625 -7.785156 -317.871094 -36.144531 -343.535156 C -53.820312 -359.53125 -96.652344 -358.097656 -126.984375 -324.582031 C -167.976562 -279.277344 -173.980469 -188.246094 -137.886719 -155.585938 C -125.730469 -144.589844 -98.878906 -135.027344 -84.882812 -150.496094 C -119.132812 -181.492188 -115.425781 -297.375 -91.429688 -323.894531 C -85.765625 -330.15625 -80.152344 -330.4375 -75.730469 -326.4375 C -52.527344 -305.441406 -32.980469 -160.472656 11.953125 -119.8125 C 32.578125 -101.148438 63.519531 -101.289062 79.515625 -118.964844 C 114.175781 -157.269531 83.875 -285.171875 65.378906 -366.890625 L 69.148438 -368.835938 C 100.890625 -310.636719 133.582031 -233.496094 148.855469 -174.125 C 160.585938 -129.34375 155.425781 -91.808594 135.761719 -70.078125 C 113.765625 -45.769531 94.175781 -50.769531 78.457031 -55.613281 C 69.460938 -45.667969 69.546875 -36.882812 75.808594 -31.214844 C 90.542969 -17.882812 139.285156 -20.667969 173.277344 -58.238281 Z M 173.277344 -58.238281 "/></g></g></g><g fill="#67a2bb" fill-opacity="1"><g transform="translate(279.765074, 1024.004618)"><g><path d="M 159.464844 -70.734375 C 174.5 -87.351562 183.347656 -105.992188 186.011719 -126.664062 C 188.558594 -146.421875 185.722656 -169.625 177.5 -196.273438 C 172.019531 -213.847656 163.726562 -234.527344 152.613281 -258.316406 C 145.804688 -272.882812 134.597656 -295.339844 118.984375 -325.683594 C 100.640625 -361.34375 87.351562 -388.203125 79.113281 -406.273438 C 65.125 -436.953125 54.796875 -464.386719 48.128906 -488.578125 L 47.085938 -492.371094 L 47.664062 -496.265625 C 47.238281 -493.398438 47.648438 -490.636719 48.898438 -487.984375 C 49.636719 -486.417969 50.539062 -485.152344 51.609375 -484.1875 C 52.773438 -483.132812 53.949219 -482.410156 55.132812 -482.015625 L 55.136719 -481.953125 C 53.625 -482.078125 51.734375 -481.894531 49.472656 -481.410156 C 43.894531 -480.214844 39.832031 -478.203125 37.277344 -475.382812 C 36.941406 -475.011719 36.753906 -474.757812 36.714844 -474.621094 L 36.789062 -474.621094 L 36.847656 -474.402344 L 36.894531 -474.183594 C 38.011719 -469.273438 39.949219 -460.863281 42.714844 -448.953125 C 50.371094 -415.996094 56.242188 -389.945312 60.328125 -370.800781 C 67.476562 -337.304688 73.007812 -308.019531 76.917969 -282.9375 C 81.910156 -250.929688 84.449219 -224.707031 84.53125 -204.273438 C 84.578125 -191.992188 83.742188 -181.558594 82.019531 -172.96875 C 79.765625 -161.738281 75.832031 -153.019531 70.214844 -146.808594 C 64.695312 -140.710938 58.28125 -137.558594 50.972656 -137.359375 C 44.074219 -137.167969 37.742188 -139.679688 31.976562 -144.902344 L 44.472656 -158.714844 L 32.367188 -144.554688 C 24.148438 -151.582031 15.839844 -165.492188 7.441406 -186.277344 C 2.925781 -197.453125 -3.757812 -216.453125 -12.617188 -243.269531 C -21.433594 -269.953125 -28.042969 -288.75 -32.457031 -299.660156 C -39.007812 -315.867188 -44.40625 -325.886719 -48.640625 -329.722656 C -50.703125 -331.585938 -53.710938 -332.96875 -57.671875 -333.875 C -62.625 -335.003906 -68.074219 -335.117188 -74.011719 -334.210938 C -80.71875 -333.1875 -87.269531 -330.957031 -93.664062 -327.523438 C -100.84375 -323.664062 -107.347656 -318.515625 -113.171875 -312.082031 C -121.542969 -302.828125 -128.355469 -291.179688 -133.609375 -277.132812 C -138.730469 -263.425781 -141.78125 -249.09375 -142.753906 -234.132812 C -143.707031 -219.449219 -142.535156 -206.210938 -139.234375 -194.421875 C -136.113281 -183.269531 -131.5 -174.929688 -125.386719 -169.398438 C -123.5 -167.691406 -121.097656 -166.113281 -118.179688 -164.667969 C -114.984375 -163.085938 -111.828125 -162.007812 -108.714844 -161.4375 C -103.789062 -160.535156 -100.449219 -161.054688 -98.695312 -162.996094 L -84.882812 -150.496094 L -97.378906 -136.683594 C -108.253906 -146.523438 -116.378906 -161.703125 -121.75 -182.21875 C -126.128906 -198.941406 -128.421875 -217.765625 -128.625 -238.691406 C -128.820312 -258.582031 -127.136719 -276.960938 -123.570312 -293.824219 C -119.46875 -313.234375 -113.359375 -327.421875 -105.242188 -336.394531 C -99.429688 -342.816406 -92.867188 -346.511719 -85.558594 -347.480469 C -77.222656 -348.582031 -69.78125 -346.171875 -63.234375 -340.25 C -56.613281 -334.257812 -50.167969 -322.671875 -43.894531 -305.484375 C -40.566406 -296.371094 -35.457031 -280.234375 -28.566406 -257.078125 C -23.589844 -240.359375 -19.75 -227.789062 -17.046875 -219.359375 C -12.542969 -205.324219 -8.269531 -193.222656 -4.226562 -183.050781 C 5.496094 -158.601562 15.054688 -142.128906 24.453125 -133.625 C 31.1875 -127.53125 38.90625 -124.449219 47.605469 -124.386719 C 55.351562 -124.332031 61.382812 -126.691406 65.703125 -131.464844 C 70.902344 -137.210938 74.285156 -147.617188 75.84375 -162.6875 C 77.417969 -177.910156 76.914062 -197.195312 74.332031 -220.550781 C 72.179688 -239.980469 68.488281 -262.851562 63.253906 -289.167969 C 60.171875 -304.671875 55.367188 -326.8125 48.839844 -355.589844 C 48.113281 -358.796875 47.566406 -361.195312 47.210938 -362.777344 L 44.027344 -376.832031 L 76.785156 -393.742188 L 85.503906 -377.757812 C 102.242188 -347.066406 117.871094 -314.160156 132.390625 -279.039062 C 147.757812 -241.871094 159.257812 -208.445312 166.894531 -178.765625 C 173.324219 -154.226562 175.210938 -131.664062 172.554688 -111.078125 C 169.738281 -89.230469 162.078125 -71.398438 149.574219 -57.582031 C 136.730469 -43.386719 122.550781 -35.335938 107.03125 -33.425781 C 100.898438 -32.671875 94.464844 -32.882812 87.730469 -34.0625 C 83.710938 -34.769531 78.792969 -36.019531 72.972656 -37.8125 L 78.457031 -55.613281 L 92.269531 -43.113281 C 91.199219 -41.929688 90.449219 -40.910156 90.019531 -40.046875 C 89.941406 -39.898438 89.898438 -39.796875 89.882812 -39.75 C 89.929688 -39.914062 89.964844 -40.121094 89.984375 -40.375 C 90.136719 -42.328125 89.574219 -43.878906 88.308594 -45.027344 C 88.5 -44.855469 88.984375 -44.609375 89.765625 -44.296875 C 91.21875 -43.714844 93 -43.273438 95.113281 -42.972656 C 100.582031 -42.1875 106.746094 -42.496094 113.597656 -43.890625 C 121.53125 -45.507812 129.234375 -48.398438 136.714844 -52.566406 C 145.195312 -57.289062 152.777344 -63.34375 159.464844 -70.734375 Z M 187.089844 -45.738281 C 177.652344 -35.308594 166.902344 -26.734375 154.84375 -20.015625 C 144.007812 -13.980469 132.738281 -9.769531 121.042969 -7.386719 C 109.96875 -5.128906 99.566406 -4.699219 89.832031 -6.089844 C 78.730469 -7.679688 69.886719 -11.449219 63.308594 -17.402344 C 59.683594 -20.683594 56.964844 -24.480469 55.148438 -28.789062 C 53.21875 -33.371094 52.449219 -38.191406 52.839844 -43.246094 C 53.503906 -51.859375 57.441406 -60.148438 64.644531 -68.113281 L 72.605469 -76.910156 L 83.945312 -73.414062 C 92.128906 -70.894531 98.304688 -69.890625 102.480469 -70.402344 C 108.820312 -71.183594 115.3125 -75.242188 121.949219 -82.578125 C 129.234375 -90.625 133.785156 -101.714844 135.605469 -115.839844 C 137.640625 -131.632812 136.042969 -149.515625 130.8125 -169.484375 C 123.613281 -197.476562 112.664062 -229.25 97.960938 -264.804688 C 83.953125 -298.695312 68.894531 -330.398438 52.796875 -359.917969 L 69.148438 -368.835938 L 77.695312 -352.285156 L 73.921875 -350.335938 L 65.378906 -366.890625 L 83.546875 -371.003906 C 83.910156 -369.398438 84.453125 -367.007812 85.171875 -363.832031 C 91.773438 -334.730469 96.648438 -312.261719 99.796875 -296.433594 C 105.238281 -269.066406 109.09375 -245.140625 111.359375 -224.648438 C 114.238281 -198.652344 114.75 -176.71875 112.902344 -158.847656 C 110.503906 -135.699219 103.980469 -118.238281 93.328125 -106.46875 C 87.480469 -100.003906 80.398438 -95.09375 72.078125 -91.738281 C 64.308594 -88.605469 56.0625 -87.070312 47.335938 -87.132812 C 38.761719 -87.195312 30.398438 -88.796875 22.253906 -91.941406 C 13.808594 -95.199219 6.210938 -99.886719 -0.546875 -106 C -14.222656 -118.375 -26.988281 -139.46875 -38.84375 -169.28125 C -43.203125 -180.242188 -47.761719 -193.140625 -52.519531 -207.976562 C -55.308594 -216.65625 -59.222656 -229.480469 -64.273438 -246.449219 C -70.949219 -268.882812 -75.824219 -284.304688 -78.890625 -292.710938 C -81.164062 -298.9375 -83.242188 -303.886719 -85.121094 -307.554688 C -86.554688 -310.355469 -87.59375 -312.046875 -88.230469 -312.625 C -86.25 -310.832031 -83.730469 -310.140625 -80.667969 -310.546875 C -79.445312 -310.707031 -78.402344 -311.046875 -77.546875 -311.566406 C -77.402344 -311.65625 -77.300781 -311.726562 -77.242188 -311.777344 C -77.335938 -311.695312 -77.460938 -311.570312 -77.617188 -311.394531 C -79.074219 -309.785156 -80.59375 -307.027344 -82.171875 -303.121094 C -84.066406 -298.433594 -85.714844 -292.765625 -87.121094 -286.121094 C -90.125 -271.914062 -91.539062 -256.226562 -91.371094 -239.058594 C -91.195312 -221.207031 -89.308594 -205.40625 -85.710938 -191.65625 C -82.210938 -178.300781 -77.769531 -169.183594 -72.382812 -164.308594 L -58.570312 -151.808594 L -71.070312 -137.996094 C -76.976562 -131.46875 -84.3125 -127.164062 -93.066406 -125.09375 C -100.050781 -123.4375 -107.507812 -123.339844 -115.4375 -124.792969 C -121.972656 -125.992188 -128.398438 -128.15625 -134.710938 -131.28125 C -140.71875 -134.257812 -145.941406 -137.753906 -150.386719 -141.773438 C -161.816406 -152.117188 -170.058594 -166.320312 -175.113281 -184.378906 C -179.554688 -200.25 -181.160156 -217.640625 -179.929688 -236.550781 C -178.71875 -255.167969 -174.910156 -273.042969 -168.503906 -290.179688 C -161.589844 -308.671875 -152.355469 -324.304688 -140.796875 -337.078125 C -132.09375 -346.695312 -122.261719 -354.449219 -111.296875 -360.339844 C -101.128906 -365.804688 -90.574219 -369.371094 -79.628906 -371.039062 C -69.023438 -372.65625 -58.941406 -372.375 -49.386719 -370.195312 C -39.097656 -367.847656 -30.515625 -363.566406 -23.644531 -357.347656 C -15.183594 -349.691406 -6.605469 -335.117188 2.082031 -313.625 C 6.796875 -301.960938 13.691406 -282.40625 22.757812 -254.957031 C 31.363281 -228.902344 37.773438 -210.660156 41.984375 -200.230469 C 48.109375 -185.074219 52.972656 -175.957031 56.578125 -172.871094 L 56.777344 -172.703125 L 56.972656 -172.527344 C 56.601562 -172.863281 56.046875 -173.199219 55.316406 -173.539062 C 53.675781 -174.300781 51.882812 -174.652344 49.941406 -174.601562 C 47.90625 -174.542969 46.050781 -174.050781 44.375 -173.121094 C 43.574219 -172.675781 42.976562 -172.238281 42.589844 -171.808594 C 43.617188 -172.945312 44.582031 -175.773438 45.492188 -180.296875 C 46.71875 -186.417969 47.3125 -194.359375 47.273438 -204.125 C 47.199219 -222.683594 44.8125 -247.039062 40.109375 -277.195312 C 36.300781 -301.59375 30.898438 -330.203125 23.894531 -363.023438 C 19.851562 -381.949219 14.03125 -407.785156 6.425781 -440.523438 C 3.644531 -452.496094 1.691406 -460.96875 0.5625 -465.941406 L 18.730469 -470.0625 L 0.667969 -465.503906 C -1 -472.105469 -0.917969 -478.585938 0.917969 -484.945312 C 2.550781 -490.601562 5.460938 -495.746094 9.652344 -500.382812 C 13.804688 -504.96875 18.953125 -508.835938 25.097656 -511.972656 C 30.289062 -514.628906 35.804688 -516.582031 41.652344 -517.835938 C 47.503906 -519.09375 53.015625 -519.507812 58.1875 -519.082031 C 65.800781 -518.457031 71.941406 -516.035156 76.605469 -511.8125 C 83.089844 -505.945312 85.726562 -498.9375 84.515625 -490.789062 L 66.089844 -493.527344 L 84.046875 -498.476562 C 90.1875 -476.191406 99.84375 -450.609375 113.011719 -421.726562 C 121.003906 -404.195312 134.039062 -377.863281 152.113281 -342.730469 C 167.941406 -311.960938 179.359375 -289.082031 186.367188 -274.085938 C 198.1875 -248.777344 207.101562 -226.5 213.101562 -207.253906 C 222.910156 -175.457031 226.199219 -147.003906 222.964844 -121.902344 C 219.304688 -93.511719 207.347656 -68.125 187.089844 -45.738281 Z M 187.089844 -45.738281 "/></g></g></g><g fill="#000000" fill-opacity="0"><g transform="translate(480.637049, 806.218845)"><g><path d="M 63.363281 -17.210938 C 84.515625 -29.25 88.089844 -107.304688 88.929688 -170.085938 L 93.367188 -170.324219 C 97.765625 -146.535156 100.449219 -129.773438 107.820312 -116.824219 C 123.304688 -89.628906 153.363281 -85.019531 168.039062 -93.375 C 198.6875 -110.824219 204.460938 -214.136719 205.878906 -253.808594 C 202.683594 -259.421875 192.582031 -261.101562 187.402344 -258.152344 C 182.53125 -179.359375 173.789062 -143.519531 161.699219 -136.636719 C 156.089844 -133.441406 150.550781 -137.148438 145.882812 -145.351562 C 129.171875 -174.703125 121.550781 -262.386719 128.980469 -285.480469 C 129.351562 -286.832031 129.046875 -288.375 128.308594 -289.667969 C 124.375 -296.574219 102.878906 -299.199219 86.476562 -289.859375 C 81.726562 -287.15625 78.148438 -283.402344 78.199219 -278.289062 C 73.566406 -232.214844 69.492188 -72.710938 46.179688 -59.441406 C 43.160156 -57.722656 40.820312 -59.820312 38.363281 -64.136719 C 24.109375 -89.171875 17.382812 -197.371094 27.84375 -226.1875 C 28.402344 -228.21875 28.339844 -229.328125 27.359375 -231.054688 C 23.425781 -237.960938 3.78125 -243.355469 -10.03125 -235.492188 C -27.300781 -225.660156 -31.710938 -88.832031 -4.429688 -40.917969 C 10.558594 -14.585938 43.507812 -5.90625 63.363281 -17.210938 Z M 63.363281 -17.210938 "/></g></g></g><g fill="#67a2bb" fill-opacity="1"><g transform="translate(480.637049, 806.218845)"><g><path d="M 54.148438 -33.398438 C 53.949219 -33.285156 53.78125 -33.175781 53.644531 -33.0625 L 53.632812 -33.066406 C 53.933594 -33.378906 54.285156 -33.859375 54.6875 -34.511719 C 55.976562 -36.574219 57.242188 -39.480469 58.488281 -43.226562 C 61.214844 -51.429688 63.480469 -62.671875 65.28125 -76.953125 C 68.097656 -99.246094 69.769531 -130.371094 70.304688 -170.335938 L 70.539062 -187.75 L 108.710938 -189.808594 L 111.683594 -173.710938 C 111.898438 -172.550781 112.214844 -170.847656 112.628906 -168.59375 C 114.957031 -155.910156 116.746094 -147.125 118 -142.234375 C 119.75 -135.402344 121.753906 -130.003906 124.011719 -126.039062 C 128.78125 -117.660156 135.363281 -112.167969 143.761719 -109.558594 C 147.117188 -108.515625 150.347656 -108.089844 153.460938 -108.285156 C 155.789062 -108.425781 157.574219 -108.855469 158.824219 -109.566406 C 160.007812 -110.238281 161.390625 -111.75 162.976562 -114.089844 C 165.152344 -117.304688 167.253906 -121.566406 169.28125 -126.871094 C 173.289062 -137.375 176.710938 -151.183594 179.542969 -168.296875 C 183.488281 -192.160156 186.0625 -220.886719 187.261719 -254.476562 L 205.878906 -253.808594 L 189.691406 -244.59375 C 190.507812 -243.15625 191.503906 -242.078125 192.675781 -241.367188 C 193.042969 -241.144531 193.332031 -241.007812 193.542969 -240.964844 C 194.1875 -240.828125 195.210938 -241.164062 196.621094 -241.964844 L 187.402344 -258.152344 L 205.996094 -257.003906 C 203.558594 -217.605469 200.046875 -187.417969 195.457031 -166.445312 C 193.039062 -155.410156 190.222656 -146.449219 187.007812 -139.566406 C 182.789062 -130.527344 177.425781 -124.152344 170.917969 -120.449219 C 166.566406 -117.972656 161.984375 -116.78125 157.164062 -116.871094 C 152.578125 -116.960938 148.214844 -118.207031 144.074219 -120.617188 C 138.546875 -123.828125 133.753906 -129.003906 129.691406 -136.132812 C 124.816406 -144.699219 120.585938 -156.710938 117 -172.171875 C 113.953125 -185.308594 111.570312 -199.839844 109.855469 -215.769531 C 108.214844 -231.011719 107.433594 -245.113281 107.507812 -258.078125 C 107.59375 -272.667969 108.839844 -283.703125 111.246094 -291.183594 L 128.980469 -285.480469 L 111.015625 -290.410156 C 110.027344 -286.804688 110.394531 -283.484375 112.121094 -280.453125 C 112.980469 -278.945312 114.003906 -277.761719 115.199219 -276.90625 C 115.433594 -276.738281 115.644531 -276.605469 115.832031 -276.507812 L 115.816406 -276.507812 C 114.75 -276.914062 113.222656 -277.160156 111.242188 -277.246094 C 105.507812 -277.5 100.324219 -276.308594 95.691406 -273.671875 C 95.335938 -273.46875 95.070312 -273.296875 94.894531 -273.15625 C 94.976562 -273.222656 95.101562 -273.363281 95.269531 -273.582031 C 96.328125 -274.949219 96.847656 -276.582031 96.828125 -278.484375 L 96.839844 -277.453125 L 96.734375 -276.425781 C 96.09375 -270.050781 95.078125 -256.003906 93.6875 -234.28125 C 90.503906 -184.609375 87.414062 -148.054688 84.417969 -124.613281 C 81.894531 -104.890625 79.027344 -89.121094 75.808594 -77.300781 C 73.804688 -69.953125 71.59375 -63.851562 69.171875 -59.003906 C 65.488281 -51.632812 60.898438 -46.382812 55.394531 -43.253906 C 51.609375 -41.097656 47.617188 -40.085938 43.421875 -40.222656 C 39.207031 -40.359375 35.300781 -41.632812 31.703125 -44.042969 C 28.113281 -46.445312 24.9375 -50.070312 22.175781 -54.921875 C 17.683594 -62.804688 13.921875 -75.417969 10.886719 -92.753906 C 8.304688 -107.507812 6.421875 -124.109375 5.246094 -142.558594 C 4.074219 -160.917969 3.8125 -177.738281 4.457031 -193.019531 C 5.203125 -210.632812 7.164062 -223.808594 10.332031 -232.542969 L 27.84375 -226.1875 L 9.878906 -231.117188 C 9.566406 -229.980469 9.484375 -228.625 9.628906 -227.046875 C 9.808594 -225.0625 10.320312 -223.328125 11.167969 -221.839844 C 11.777344 -220.773438 12.449219 -219.929688 13.179688 -219.3125 L 13.222656 -219.230469 C 12.203125 -219.761719 10.863281 -220.167969 9.207031 -220.453125 C 5.113281 -221.160156 1.773438 -220.777344 -0.816406 -219.300781 C 0.835938 -220.242188 1.996094 -221.246094 2.667969 -222.316406 C 2.414062 -221.914062 2.078125 -221.128906 1.660156 -219.960938 C 0.347656 -216.324219 -0.832031 -211.242188 -1.886719 -204.710938 C -4.242188 -190.136719 -5.378906 -172.753906 -5.308594 -152.550781 C -5.230469 -131.027344 -3.746094 -111.207031 -0.847656 -93.089844 C 2.238281 -73.792969 6.4375 -59.472656 11.757812 -50.132812 C 16.640625 -41.554688 23.835938 -35.742188 33.339844 -32.683594 C 37.480469 -31.355469 41.496094 -30.804688 45.390625 -31.039062 C 48.824219 -31.242188 51.742188 -32.027344 54.148438 -33.398438 Z M 72.578125 -1.023438 C 65.140625 3.210938 56.820312 5.601562 47.609375 6.152344 C 39.066406 6.660156 30.507812 5.539062 21.941406 2.785156 C 13.265625 -0.00390625 5.339844 -4.226562 -1.835938 -9.882812 C -9.53125 -15.945312 -15.792969 -23.21875 -20.621094 -31.699219 C -28.167969 -44.957031 -33.839844 -63.460938 -37.636719 -87.210938 C -40.835938 -107.226562 -42.480469 -128.964844 -42.5625 -152.417969 C -42.644531 -174.65625 -41.34375 -194.066406 -38.667969 -210.648438 C -37.246094 -219.460938 -35.488281 -226.773438 -33.394531 -232.585938 C -30.058594 -241.84375 -25.34375 -248.207031 -19.25 -251.679688 C -8.925781 -257.554688 2.667969 -259.386719 15.53125 -257.167969 C 20.984375 -256.230469 25.933594 -254.609375 30.375 -252.304688 C 36.355469 -249.203125 40.746094 -245.191406 43.546875 -240.273438 C 46.910156 -234.363281 47.664062 -228.023438 45.808594 -221.257812 L 45.609375 -220.535156 L 45.351562 -219.832031 C 43.488281 -214.695312 42.265625 -205.234375 41.679688 -191.441406 C 41.089844 -177.480469 41.339844 -161.976562 42.425781 -144.929688 C 43.515625 -127.839844 45.238281 -112.589844 47.585938 -99.179688 C 49.875 -86.097656 52.199219 -77.488281 54.550781 -73.351562 C 54.679688 -73.125 54.789062 -72.945312 54.878906 -72.808594 L 54.828125 -72.867188 C 54.242188 -73.609375 53.441406 -74.324219 52.417969 -75.007812 C 50.113281 -76.546875 47.519531 -77.367188 44.636719 -77.460938 C 41.828125 -77.550781 39.269531 -76.941406 36.964844 -75.628906 C 36.007812 -75.085938 35.320312 -74.546875 34.894531 -74.015625 C 35.125 -74.304688 35.441406 -74.851562 35.84375 -75.65625 C 37.167969 -78.304688 38.503906 -82.117188 39.859375 -87.089844 C 42.625 -97.242188 45.160156 -111.328125 47.460938 -129.339844 C 50.359375 -152 53.375 -187.773438 56.507812 -236.664062 C 57.925781 -258.835938 58.980469 -273.332031 59.667969 -280.15625 L 78.199219 -278.289062 L 59.574219 -278.097656 C 59.503906 -284.824219 61.582031 -290.917969 65.804688 -296.378906 C 68.707031 -300.128906 72.523438 -303.351562 77.257812 -306.046875 C 88.121094 -312.234375 100 -315.039062 112.894531 -314.464844 C 118.859375 -314.203125 124.234375 -313.160156 129.023438 -311.34375 C 136.148438 -308.640625 141.308594 -304.488281 144.496094 -298.886719 C 147.859375 -292.976562 148.675781 -286.863281 146.941406 -280.546875 L 146.835938 -280.15625 L 146.710938 -279.773438 C 145.476562 -275.929688 144.824219 -268.625 144.761719 -257.859375 C 144.695312 -246.304688 145.40625 -233.601562 146.898438 -219.757812 C 148.453125 -205.320312 150.582031 -192.265625 153.292969 -180.589844 C 156.058594 -168.65625 158.984375 -159.980469 162.070312 -154.566406 C 162.636719 -153.570312 163.140625 -152.820312 163.582031 -152.3125 L 163.621094 -152.253906 C 163.40625 -152.441406 163.132812 -152.632812 162.800781 -152.824219 C 161.371094 -153.652344 159.730469 -154.085938 157.871094 -154.121094 C 155.867188 -154.160156 154.070312 -153.726562 152.484375 -152.824219 C 152.0625 -152.585938 151.710938 -152.339844 151.429688 -152.082031 L 151.417969 -152.097656 C 151.957031 -152.785156 152.566406 -153.859375 153.253906 -155.328125 C 155.300781 -159.710938 157.234375 -166.074219 159.0625 -174.410156 C 163.242188 -193.519531 166.492188 -221.8125 168.8125 -259.300781 L 169.433594 -269.355469 L 178.1875 -274.339844 C 184.96875 -278.203125 192.648438 -279.226562 201.226562 -277.417969 C 205.183594 -276.585938 208.796875 -275.171875 212.070312 -273.175781 C 216.378906 -270.550781 219.710938 -267.167969 222.066406 -263.027344 L 224.683594 -258.429688 L 224.496094 -253.144531 C 223.238281 -217.964844 220.503906 -187.65625 216.296875 -162.21875 C 213.058594 -142.632812 208.988281 -126.417969 204.082031 -113.578125 C 197.210938 -95.589844 188.269531 -83.457031 177.253906 -77.1875 C 171.003906 -73.628906 163.84375 -71.601562 155.769531 -71.097656 C 148.105469 -70.621094 140.414062 -71.582031 132.703125 -73.980469 C 124.496094 -76.53125 116.980469 -80.5 110.152344 -85.894531 C 102.695312 -91.78125 96.519531 -99.019531 91.632812 -107.609375 C 87.726562 -114.464844 84.488281 -122.925781 81.910156 -132.984375 C 80.441406 -138.710938 78.46875 -148.335938 75.984375 -161.867188 C 75.574219 -164.101562 75.261719 -165.789062 75.050781 -166.9375 L 93.367188 -170.324219 L 94.371094 -151.722656 L 89.933594 -151.484375 L 88.929688 -170.085938 L 107.558594 -169.835938 C 107.003906 -128.480469 105.234375 -95.964844 102.246094 -72.289062 C 100.136719 -55.589844 97.335938 -41.984375 93.839844 -31.46875 C 88.824219 -16.382812 81.734375 -6.234375 72.578125 -1.023438 Z M 72.578125 -1.023438 "/></g></g></g><g fill="#000000" fill-opacity="0"><g transform="translate(630.17812, 701.891575)"><g><path d="M 44.886719 5.664062 C 49.742188 4.628906 52.453125 3.035156 52.316406 0.0195312 C 65.0625 -85.484375 123.554688 -189.886719 130.84375 -191.441406 C 132.300781 -191.75 133.476562 -190.984375 133.789062 -189.527344 C 136.585938 -176.414062 110.480469 -91.617188 115.246094 -69.269531 C 118.042969 -56.152344 141.378906 -44.367188 154.984375 -47.269531 C 158.867188 -48.097656 162.929688 -50.488281 163.835938 -55.761719 C 186.046875 -132.617188 231.175781 -230.609375 246.238281 -233.824219 C 247.695312 -234.132812 248.871094 -233.367188 249.285156 -231.425781 C 251.152344 -222.679688 211.101562 -138.972656 220.21875 -96.222656 C 226.125 -68.535156 252.46875 -49.773438 272.386719 -54.019531 C 300.5625 -60.03125 340.027344 -113.136719 372.136719 -200.738281 C 370.6875 -207.539062 360.699219 -211.503906 355.839844 -210.46875 C 330.347656 -146.625 297.691406 -102.078125 281.660156 -98.660156 C 276.804688 -97.625 273.753906 -100.023438 272.40625 -106.335938 C 266.707031 -133.054688 293.992188 -217.085938 305.183594 -240.804688 C 306.714844 -243.164062 307.550781 -246.390625 306.824219 -249.789062 C 302.886719 -268.25 275.179688 -279.101562 260.121094 -275.890625 C 233.886719 -270.296875 196.464844 -210.003906 165.710938 -123.199219 L 162.203125 -122.960938 C 173.945312 -172.699219 181.117188 -198.605469 178.734375 -209.777344 C 176.042969 -222.410156 155.414062 -235.785156 142.785156 -233.09375 C 113.636719 -226.878906 66.691406 -118.339844 54.058594 -77.550781 L 50.554688 -77.3125 C 59.210938 -131.980469 79.957031 -201.414062 86.761719 -202.863281 C 88.011719 -204.144531 88.566406 -206.296875 88.257812 -207.753906 C 86.289062 -216.984375 67.046875 -228.625 52.472656 -225.515625 C 28.183594 -220.335938 -4.316406 -55.960938 3.453125 -19.527344 C 7.910156 1.359375 32.742188 8.253906 44.886719 5.664062 Z M 44.886719 5.664062 "/></g></g></g><g fill="#67a2bb" fill-opacity="1"><g transform="translate(630.17812, 701.891575)"><g><path d="M 41 -12.554688 C 41.398438 -12.636719 41.632812 -12.695312 41.710938 -12.722656 C 41.085938 -12.496094 40.398438 -12.109375 39.648438 -11.574219 C 37.890625 -10.320312 36.480469 -8.679688 35.414062 -6.652344 C 34.15625 -4.265625 33.589844 -1.765625 33.707031 0.855469 L 33.625 -0.945312 L 33.890625 -2.730469 C 37.011719 -23.671875 42.816406 -46.667969 51.292969 -71.722656 C 58.324219 -92.496094 66.800781 -113.59375 76.722656 -135.019531 C 98.625 -182.308594 115.367188 -207.1875 126.957031 -209.65625 C 132.71875 -210.886719 138.023438 -209.925781 142.882812 -206.777344 C 147.738281 -203.628906 150.78125 -199.171875 152.007812 -193.414062 C 153.0625 -188.46875 152.546875 -180.292969 150.464844 -168.898438 C 149.421875 -163.195312 147.328125 -153.207031 144.183594 -138.933594 C 135.800781 -100.882812 132.230469 -78.957031 133.464844 -73.152344 C 133.382812 -73.546875 133.300781 -73.808594 133.222656 -73.941406 C 133.402344 -73.640625 133.710938 -73.257812 134.148438 -72.804688 C 135.554688 -71.34375 137.457031 -69.96875 139.859375 -68.683594 C 142.382812 -67.332031 144.894531 -66.382812 147.390625 -65.839844 C 149.160156 -65.457031 150.394531 -65.339844 151.097656 -65.488281 C 150.277344 -65.3125 149.421875 -64.847656 148.527344 -64.09375 C 146.84375 -62.679688 145.828125 -60.953125 145.480469 -58.917969 L 145.65625 -59.9375 L 145.941406 -60.933594 C 151.480469 -80.097656 158.347656 -100.503906 166.542969 -122.148438 C 174.300781 -142.640625 182.390625 -162 190.808594 -180.21875 C 199.378906 -198.777344 207.207031 -213.785156 214.285156 -225.242188 C 218.234375 -231.636719 221.875 -236.757812 225.207031 -240.601562 C 230.722656 -246.964844 236.4375 -250.78125 242.351562 -252.039062 C 248.613281 -253.375 254.261719 -252.160156 259.304688 -248.390625 C 263.597656 -245.183594 266.328125 -240.824219 267.503906 -235.308594 C 268.191406 -232.09375 268.101562 -228.414062 267.238281 -224.273438 C 266.820312 -222.265625 266.160156 -219.796875 265.261719 -216.863281 C 264.261719 -213.597656 262.230469 -207.582031 259.175781 -198.8125 C 251.226562 -176.023438 245.726562 -158.351562 242.667969 -145.800781 C 237.699219 -125.414062 236.289062 -110.183594 238.4375 -100.109375 C 240.371094 -91.039062 245.050781 -83.625 252.472656 -77.859375 C 255.605469 -75.429688 258.769531 -73.738281 261.972656 -72.785156 C 264.503906 -72.03125 266.679688 -71.851562 268.503906 -72.238281 C 272.398438 -73.070312 277.238281 -76.035156 283.03125 -81.136719 C 290.203125 -87.457031 297.695312 -96.222656 305.503906 -107.429688 C 323.21875 -132.863281 339.601562 -166.101562 354.644531 -207.148438 L 372.136719 -200.738281 L 353.917969 -196.855469 C 354.285156 -195.125 354.980469 -193.710938 356 -192.609375 C 356.292969 -192.296875 356.511719 -192.097656 356.660156 -192.023438 C 356.582031 -192.0625 356.542969 -192.082031 356.539062 -192.085938 C 357.359375 -191.917969 358.421875 -191.972656 359.726562 -192.25 L 355.839844 -210.46875 L 373.140625 -203.5625 C 360.40625 -171.667969 346.21875 -144.28125 330.582031 -121.394531 C 313.867188 -96.929688 298.855469 -83.28125 285.546875 -80.441406 C 277.261719 -78.675781 270.054688 -80.304688 263.917969 -85.328125 C 259.007812 -89.347656 255.765625 -95.054688 254.1875 -102.453125 C 251.011719 -117.34375 254.449219 -143.070312 264.5 -179.632812 C 268.203125 -193.101562 272.351562 -206.445312 276.945312 -219.664062 C 281.296875 -232.1875 285.097656 -241.886719 288.339844 -248.757812 L 288.875 -249.890625 L 289.554688 -250.941406 C 288.539062 -249.375 288.222656 -247.695312 288.605469 -245.90625 C 288.398438 -246.878906 287.691406 -248.003906 286.480469 -249.273438 C 284.71875 -251.132812 282.34375 -252.800781 279.359375 -254.28125 C 276.300781 -255.800781 273.160156 -256.851562 269.9375 -257.425781 C 267.367188 -257.886719 265.390625 -257.96875 264.003906 -257.671875 C 261.15625 -257.0625 257.121094 -254.109375 251.898438 -248.808594 C 245.191406 -242 238.042969 -232.460938 230.449219 -220.195312 C 213.90625 -193.464844 198.175781 -159.058594 183.269531 -116.980469 L 179.183594 -105.449219 L 138.273438 -102.65625 L 144.074219 -127.242188 C 145.328125 -132.554688 147.085938 -139.921875 149.34375 -149.339844 C 154.332031 -170.148438 157.464844 -183.929688 158.746094 -190.683594 C 160.320312 -198.984375 160.910156 -204.054688 160.515625 -205.894531 C 160.550781 -205.734375 160.585938 -205.601562 160.625 -205.507812 C 160.613281 -205.535156 160.585938 -205.589844 160.539062 -205.675781 C 160.3125 -206.097656 159.960938 -206.589844 159.496094 -207.148438 C 158.179688 -208.714844 156.464844 -210.183594 154.351562 -211.554688 C 152.238281 -212.921875 150.195312 -213.890625 148.230469 -214.453125 C 147.53125 -214.652344 146.941406 -214.769531 146.457031 -214.804688 C 146.363281 -214.8125 146.300781 -214.816406 146.269531 -214.816406 C 146.375 -214.820312 146.507812 -214.839844 146.667969 -214.875 C 146.867188 -214.917969 147.007812 -214.957031 147.09375 -214.992188 C 146.972656 -214.941406 146.796875 -214.847656 146.570312 -214.714844 C 145.699219 -214.203125 144.675781 -213.425781 143.496094 -212.375 C 140.492188 -209.707031 137.109375 -205.84375 133.34375 -200.78125 C 125.855469 -190.71875 117.671875 -177.046875 108.796875 -159.773438 C 101.046875 -144.683594 93.566406 -128.445312 86.363281 -111.058594 C 79.960938 -95.609375 75.125 -82.601562 71.851562 -72.039062 L 68.074219 -59.839844 L 28.5 -57.136719 L 32.15625 -80.226562 C 36.515625 -107.761719 42.957031 -136.105469 51.472656 -165.265625 C 55.300781 -178.375 58.867188 -189.039062 62.164062 -197.257812 C 64.039062 -201.9375 65.808594 -205.714844 67.464844 -208.59375 C 71.496094 -215.585938 76.632812 -219.75 82.875 -221.082031 L 86.761719 -202.863281 L 73.421875 -215.867188 C 70.171875 -212.53125 69.042969 -208.53125 70.039062 -203.867188 C 70.25 -202.882812 70.546875 -202.078125 70.929688 -201.460938 L 70.964844 -201.402344 C 70.878906 -201.507812 70.761719 -201.636719 70.621094 -201.777344 C 69.578125 -202.835938 68.140625 -203.855469 66.3125 -204.832031 C 64.261719 -205.929688 62.21875 -206.683594 60.183594 -207.105469 C 58.574219 -207.433594 57.300781 -207.5 56.355469 -207.296875 C 58.300781 -207.710938 59.746094 -208.371094 60.6875 -209.269531 C 60.253906 -208.855469 59.632812 -208.007812 58.820312 -206.722656 C 56.390625 -202.875 53.746094 -197.1875 50.890625 -189.660156 C 45.054688 -174.28125 39.46875 -154.476562 34.132812 -130.238281 C 29.007812 -106.945312 25.273438 -84.953125 22.929688 -64.261719 C 20.625 -43.90625 20.207031 -30.289062 21.671875 -23.414062 C 22.429688 -19.863281 25.007812 -17.023438 29.40625 -14.894531 C 31.6875 -13.785156 34.101562 -13.046875 36.644531 -12.667969 C 38.570312 -12.382812 40.023438 -12.34375 41 -12.554688 Z M 48.769531 23.882812 C 43.40625 25.027344 37.542969 25.128906 31.183594 24.183594 C 24.878906 23.25 18.875 21.402344 13.167969 18.640625 C 6.457031 15.390625 0.789062 11.160156 -3.835938 5.949219 C -9.386719 -0.308594 -13.027344 -7.503906 -14.765625 -15.644531 C -17.074219 -26.476562 -16.847656 -44.078125 -14.089844 -68.453125 C -11.601562 -90.425781 -7.65625 -113.691406 -2.25 -138.246094 C 3.472656 -164.257812 9.578125 -185.800781 16.058594 -202.878906 C 19.800781 -212.746094 23.558594 -220.660156 27.324219 -226.621094 C 33.449219 -236.3125 40.535156 -242.019531 48.585938 -243.734375 C 54.617188 -245.019531 60.984375 -244.972656 67.6875 -243.597656 C 73.25 -242.453125 78.644531 -240.484375 83.871094 -237.691406 C 89.03125 -234.933594 93.453125 -231.683594 97.148438 -227.941406 C 102.125 -222.894531 105.234375 -217.460938 106.476562 -211.636719 C 107.289062 -207.824219 107.121094 -203.953125 105.976562 -200.027344 C 104.828125 -196.089844 102.867188 -192.699219 100.097656 -189.859375 L 96.160156 -185.820312 L 90.644531 -184.644531 C 94.253906 -185.414062 97.148438 -187.042969 99.332031 -189.53125 C 99.566406 -189.800781 99.753906 -190.035156 99.890625 -190.234375 C 99.871094 -190.207031 99.824219 -190.125 99.75 -189.996094 C 98.964844 -188.636719 97.964844 -186.433594 96.738281 -183.382812 C 93.890625 -176.289062 90.722656 -166.769531 87.234375 -154.820312 C 79.160156 -127.179688 73.066406 -100.371094 68.953125 -74.398438 L 50.554688 -77.3125 L 49.285156 -95.898438 L 52.789062 -96.136719 L 54.058594 -77.550781 L 36.265625 -83.066406 C 39.875 -94.722656 45.101562 -108.808594 51.945312 -125.320312 C 59.539062 -143.644531 67.441406 -160.804688 75.660156 -176.800781 C 85.472656 -195.902344 94.738281 -211.308594 103.457031 -223.023438 C 115.679688 -239.449219 127.496094 -248.878906 138.898438 -251.3125 C 144.984375 -252.609375 151.507812 -252.261719 158.472656 -250.273438 C 164.007812 -248.691406 169.390625 -246.203125 174.621094 -242.8125 C 179.851562 -239.421875 184.316406 -235.519531 188.023438 -231.109375 C 192.679688 -225.566406 195.65625 -219.75 196.953125 -213.664062 C 198.390625 -206.9375 197.855469 -196.964844 195.351562 -183.75 C 193.960938 -176.40625 190.699219 -162.042969 185.574219 -140.652344 C 183.324219 -131.277344 181.578125 -123.953125 180.335938 -118.679688 L 162.203125 -122.960938 L 160.9375 -141.546875 L 164.441406 -141.785156 L 165.710938 -123.199219 L 148.152344 -129.421875 C 163.949219 -174.015625 180.824219 -210.808594 198.769531 -239.804688 C 218.761719 -272.101562 237.917969 -290.203125 256.234375 -294.109375 C 262.382812 -295.417969 269.136719 -295.417969 276.496094 -294.101562 C 283.210938 -292.898438 289.6875 -290.75 295.929688 -287.652344 C 302.84375 -284.214844 308.695312 -279.980469 313.488281 -274.941406 C 319.523438 -268.589844 323.375 -261.5 325.042969 -253.675781 C 326.808594 -245.40625 325.398438 -237.738281 320.816406 -230.671875 L 305.183594 -240.804688 L 322.03125 -232.855469 C 319.351562 -227.179688 316.054688 -218.707031 312.136719 -207.429688 C 307.8125 -194.988281 303.90625 -182.433594 300.421875 -169.757812 C 296.46875 -155.378906 293.640625 -142.898438 291.941406 -132.324219 C 290.210938 -121.578125 289.773438 -114.210938 290.625 -110.222656 C 290.648438 -110.105469 290.664062 -110.039062 290.667969 -110.023438 C 290.605469 -110.210938 290.511719 -110.4375 290.378906 -110.695312 C 289.742188 -111.960938 288.789062 -113.113281 287.515625 -114.15625 C 285.785156 -115.574219 283.828125 -116.476562 281.644531 -116.871094 C 280.230469 -117.125 278.9375 -117.128906 277.777344 -116.878906 C 277.375 -116.792969 277.089844 -116.710938 276.925781 -116.632812 C 277.1875 -116.757812 277.542969 -116.96875 277.992188 -117.273438 C 279.507812 -118.296875 281.285156 -119.816406 283.328125 -121.835938 C 288.335938 -126.792969 293.835938 -133.652344 299.820312 -142.414062 C 313.914062 -163.039062 326.820312 -188.027344 338.539062 -217.378906 L 342.230469 -226.613281 L 351.957031 -228.6875 C 359.035156 -230.195312 366.339844 -228.988281 373.875 -225.0625 C 377.542969 -223.152344 380.691406 -220.777344 383.324219 -217.9375 C 386.953125 -214.023438 389.296875 -209.582031 390.355469 -204.625 L 391.476562 -199.371094 L 389.625 -194.328125 C 373.476562 -150.265625 355.625 -114.199219 336.070312 -86.132812 C 315.574219 -56.710938 295.640625 -39.933594 276.273438 -35.800781 C 268.261719 -34.09375 259.957031 -34.519531 251.355469 -37.074219 C 243.683594 -39.355469 236.441406 -43.140625 229.625 -48.433594 C 222.863281 -53.679688 217.128906 -59.949219 212.417969 -67.238281 C 207.378906 -75.027344 203.90625 -83.394531 202 -92.339844 C 198.667969 -107.960938 200.160156 -128.722656 206.472656 -154.625 C 209.8125 -168.335938 215.652344 -187.15625 223.996094 -211.078125 C 226.898438 -219.402344 228.78125 -224.972656 229.644531 -227.789062 C 230.207031 -229.628906 230.582031 -230.992188 230.765625 -231.875 C 230.789062 -231.972656 230.800781 -232.039062 230.804688 -232.074219 C 230.789062 -231.980469 230.777344 -231.851562 230.761719 -231.695312 C 230.648438 -230.410156 230.75 -229.023438 231.070312 -227.539062 C 231.839844 -223.925781 233.816406 -220.929688 237 -218.546875 C 240.984375 -215.570312 245.359375 -214.589844 250.121094 -215.605469 C 252.003906 -216.003906 253.488281 -216.632812 254.574219 -217.484375 C 254.359375 -217.316406 253.957031 -216.886719 253.359375 -216.203125 C 251.339844 -213.871094 248.878906 -210.355469 245.980469 -205.664062 C 239.691406 -195.480469 232.574219 -181.792969 224.628906 -164.597656 C 216.582031 -147.171875 208.832031 -128.628906 201.386719 -108.957031 C 193.546875 -88.25 186.996094 -68.792969 181.734375 -50.589844 L 163.835938 -55.761719 L 182.195312 -52.601562 C 181.007812 -45.695312 177.785156 -40.03125 172.527344 -35.601562 C 168.675781 -32.355469 164.121094 -30.171875 158.867188 -29.050781 C 152.933594 -27.785156 146.464844 -27.914062 139.46875 -29.4375 C 133.582031 -30.71875 127.847656 -32.851562 122.265625 -35.84375 C 116.410156 -38.980469 111.421875 -42.691406 107.296875 -46.976562 C 101.863281 -52.625 98.441406 -58.761719 97.027344 -65.382812 C 95.34375 -73.292969 95.964844 -85.9375 98.898438 -103.320312 C 100.445312 -112.488281 103.414062 -127.03125 107.800781 -146.949219 C 113.226562 -171.585938 115.816406 -184.484375 115.570312 -185.644531 C 116.488281 -181.339844 118.835938 -177.964844 122.609375 -175.519531 C 126.386719 -173.070312 130.425781 -172.304688 134.726562 -173.222656 C 138.019531 -173.921875 140.566406 -175.21875 142.371094 -177.105469 C 142.097656 -176.820312 141.613281 -176.207031 140.929688 -175.269531 C 138.882812 -172.472656 136.347656 -168.519531 133.324219 -163.410156 C 125.960938 -150.957031 118.363281 -136.277344 110.53125 -119.363281 C 101.167969 -99.148438 93.1875 -79.289062 86.582031 -59.777344 C 78.816406 -36.828125 73.535156 -15.980469 70.742188 2.765625 L 52.316406 0.0195312 L 70.925781 -0.820312 C 71.109375 3.289062 70.261719 7.128906 68.378906 10.707031 C 66.699219 13.890625 64.339844 16.570312 61.300781 18.742188 C 58.015625 21.089844 53.839844 22.800781 48.769531 23.882812 Z M 48.769531 23.882812 "/></g></g></g><g fill="#000000" fill-opacity="0"><g transform="translate(908.773219, 649.524342)"><g><path d="M 121.460938 -67.066406 C 123.445312 -66.9375 124.5 -67.859375 124.632812 -69.84375 C 149.714844 -124.921875 202.222656 -217.996094 243.855469 -267.492188 C 244.914062 -268.414062 245.472656 -269.375 245.574219 -270.859375 C 246.167969 -279.78125 227.433594 -297.460938 214.054688 -298.351562 C 210.582031 -298.582031 207.542969 -297.789062 204.902344 -295.476562 C 169.117188 -259.035156 101.605469 -127.632812 99.820312 -100.871094 C 98.566406 -82.035156 114.523438 -67.53125 121.460938 -67.066406 Z M 74.738281 21.414062 C 98.03125 22.96875 111.578125 6.449219 112.605469 -8.917969 C 113.496094 -22.296875 105.863281 -34.753906 87.527344 -35.976562 C 65.71875 -37.433594 52.667969 -20.878906 51.609375 -5.019531 C 50.71875 8.363281 57.390625 20.257812 74.738281 21.414062 Z M 74.738281 21.414062 "/></g></g></g><g fill="#67a2bb" fill-opacity="1"><g transform="translate(908.773219, 649.524342)"><g><path d="M 122.703125 -85.65625 C 118.5625 -85.929688 114.820312 -84.605469 111.476562 -81.683594 C 108.132812 -78.757812 106.324219 -75.226562 106.046875 -71.082031 L 106.273438 -74.472656 L 107.679688 -77.5625 C 121.882812 -108.75 139.988281 -142.972656 162 -180.234375 C 186.96875 -222.507812 209.503906 -255.589844 229.601562 -279.480469 L 230.515625 -280.570312 L 231.589844 -281.511719 C 228.773438 -279.046875 227.242188 -275.910156 226.988281 -272.101562 C 226.886719 -270.605469 227.027344 -269.324219 227.410156 -268.261719 L 227.449219 -268.148438 C 227.367188 -268.304688 227.257812 -268.496094 227.113281 -268.71875 C 226.109375 -270.28125 224.605469 -271.964844 222.601562 -273.761719 C 220.421875 -275.722656 218.21875 -277.292969 215.988281 -278.472656 C 214.433594 -279.296875 213.375 -279.726562 212.8125 -279.765625 C 214.3125 -279.664062 215.761719 -280.230469 217.167969 -281.457031 L 204.902344 -295.476562 L 218.191406 -282.425781 C 210.601562 -274.695312 200.984375 -261.699219 189.34375 -243.445312 C 178.476562 -226.402344 167.386719 -207.195312 156.074219 -185.828125 C 145.199219 -165.289062 136.203125 -146.714844 129.082031 -130.101562 C 122.261719 -114.191406 118.703125 -104.035156 118.410156 -99.628906 C 118.15625 -95.855469 119.441406 -92.152344 122.269531 -88.523438 C 123.398438 -87.074219 124.53125 -85.949219 125.671875 -85.148438 C 125.816406 -85.046875 125.941406 -84.964844 126.042969 -84.90625 C 126.039062 -84.910156 125.996094 -84.929688 125.921875 -84.960938 C 125.054688 -85.339844 123.984375 -85.570312 122.703125 -85.65625 Z M 120.222656 -48.480469 C 114.953125 -48.832031 109.640625 -50.886719 104.28125 -54.644531 C 100.089844 -57.582031 96.285156 -61.25 92.867188 -65.640625 C 84.230469 -76.738281 80.351562 -88.894531 81.234375 -102.109375 C 81.8125 -110.746094 86.347656 -124.972656 94.839844 -144.785156 C 102.363281 -162.328125 111.796875 -181.820312 123.148438 -203.261719 C 134.929688 -225.515625 146.523438 -245.585938 157.929688 -263.476562 C 170.96875 -283.921875 182.195312 -298.941406 191.609375 -308.53125 L 192.105469 -309.03125 L 192.632812 -309.496094 C 198.972656 -315.042969 206.527344 -317.523438 215.292969 -316.9375 C 221.144531 -316.546875 227.1875 -314.699219 233.425781 -311.394531 C 238.359375 -308.78125 243.054688 -305.472656 247.507812 -301.472656 C 251.992188 -297.441406 255.636719 -293.242188 258.449219 -288.871094 C 262.675781 -282.300781 264.578125 -275.882812 264.160156 -269.621094 C 263.730469 -263.167969 261.050781 -257.78125 256.121094 -253.472656 L 243.855469 -267.492188 L 258.109375 -255.5 C 239.339844 -233.1875 217.996094 -201.78125 194.074219 -161.289062 C 172.738281 -125.160156 155.238281 -92.105469 141.585938 -62.125 L 124.632812 -69.84375 L 143.222656 -68.605469 C 142.8125 -62.480469 140.40625 -57.492188 136.007812 -53.644531 C 131.609375 -49.792969 126.347656 -48.074219 120.222656 -48.480469 Z M 75.976562 2.828125 C 81.632812 3.203125 86.132812 1.871094 89.476562 -1.175781 C 92.273438 -3.726562 93.789062 -6.71875 94.019531 -10.15625 C 94.167969 -12.410156 93.804688 -14.070312 92.925781 -15.128906 C 91.863281 -16.414062 89.652344 -17.167969 86.289062 -17.390625 C 81.519531 -17.710938 77.675781 -16.453125 74.757812 -13.621094 C 71.976562 -10.921875 70.453125 -7.640625 70.195312 -3.78125 C 70.03125 -1.296875 70.3125 0.410156 71.039062 1.347656 C 71.667969 2.15625 73.316406 2.648438 75.976562 2.828125 Z M 73.5 40 C 59.71875 39.082031 49.097656 33.820312 41.628906 24.214844 C 35.097656 15.816406 32.230469 5.65625 33.023438 -6.261719 C 33.445312 -12.558594 34.984375 -18.628906 37.652344 -24.476562 C 40.402344 -30.515625 44.125 -35.808594 48.816406 -40.363281 C 53.910156 -45.300781 59.769531 -49 66.394531 -51.453125 C 73.417969 -54.054688 80.875 -55.089844 88.765625 -54.566406 C 102.796875 -53.628906 113.75 -48.402344 121.628906 -38.882812 C 128.8125 -30.203125 132 -19.800781 131.191406 -7.675781 C 130.769531 -1.351562 129.140625 4.746094 126.308594 10.617188 C 123.410156 16.621094 119.496094 21.871094 114.570312 26.363281 C 109.292969 31.171875 103.234375 34.753906 96.402344 37.105469 C 89.222656 39.574219 81.589844 40.539062 73.5 40 Z M 73.5 40 "/></g></g></g><g fill="#ffde59" fill-opacity="1"><g transform="translate(279.765074, 1024.004618)"><g><path d="M 173.277344 -58.238281 C 209.9375 -98.75 212.503906 -146.003906 195.300781 -201.761719 C 167.664062 -290.410156 93.144531 -395.355469 66.089844 -493.527344 C 66.351562 -495.296875 65.578125 -496.667969 64.105469 -498 C 57.84375 -503.664062 34.464844 -500.035156 23.464844 -487.882812 C 19.132812 -483.09375 16.976562 -477.007812 18.730469 -470.0625 C 36.316406 -392.519531 86.730469 -192.824219 56.402344 -159.308594 C 52.402344 -154.890625 48.527344 -155.046875 44.472656 -158.714844 C 17.65625 -181.640625 -7.785156 -317.871094 -36.144531 -343.535156 C -53.820312 -359.53125 -96.652344 -358.097656 -126.984375 -324.582031 C -167.976562 -279.277344 -173.980469 -188.246094 -137.886719 -155.585938 C -125.730469 -144.589844 -98.878906 -135.027344 -84.882812 -150.496094 C -119.132812 -181.492188 -115.425781 -297.375 -91.429688 -323.894531 C -85.765625 -330.15625 -80.152344 -330.4375 -75.730469 -326.4375 C -52.527344 -305.441406 -32.980469 -160.472656 11.953125 -119.8125 C 32.578125 -101.148438 63.519531 -101.289062 79.515625 -118.964844 C 114.175781 -157.269531 83.875 -285.171875 65.378906 -366.890625 L 69.148438 -368.835938 C 100.890625 -310.636719 133.582031 -233.496094 148.855469 -174.125 C 160.585938 -129.34375 155.425781 -91.808594 135.761719 -70.078125 C 113.765625 -45.769531 94.175781 -50.769531 78.457031 -55.613281 C 69.460938 -45.667969 69.546875 -36.882812 75.808594 -31.214844 C 90.542969 -17.882812 139.285156 -20.667969 173.277344 -58.238281 Z M 173.277344 -58.238281 "/></g></g></g><g fill="#ffde59" fill-opacity="1"><g transform="translate(480.637049, 806.218845)"><g><path d="M 63.363281 -17.210938 C 84.515625 -29.25 88.089844 -107.304688 88.929688 -170.085938 L 93.367188 -170.324219 C 97.765625 -146.535156 100.449219 -129.773438 107.820312 -116.824219 C 123.304688 -89.628906 153.363281 -85.019531 168.039062 -93.375 C 198.6875 -110.824219 204.460938 -214.136719 205.878906 -253.808594 C 202.683594 -259.421875 192.582031 -261.101562 187.402344 -258.152344 C 182.53125 -179.359375 173.789062 -143.519531 161.699219 -136.636719 C 156.089844 -133.441406 150.550781 -137.148438 145.882812 -145.351562 C 129.171875 -174.703125 121.550781 -262.386719 128.980469 -285.480469 C 129.351562 -286.832031 129.046875 -288.375 128.308594 -289.667969 C 124.375 -296.574219 102.878906 -299.199219 86.476562 -289.859375 C 81.726562 -287.15625 78.148438 -283.402344 78.199219 -278.289062 C 73.566406 -232.214844 69.492188 -72.710938 46.179688 -59.441406 C 43.160156 -57.722656 40.820312 -59.820312 38.363281 -64.136719 C 24.109375 -89.171875 17.382812 -197.371094 27.84375 -226.1875 C 28.402344 -228.21875 28.339844 -229.328125 27.359375 -231.054688 C 23.425781 -237.960938 3.78125 -243.355469 -10.03125 -235.492188 C -27.300781 -225.660156 -31.710938 -88.832031 -4.429688 -40.917969 C 10.558594 -14.585938 43.507812 -5.90625 63.363281 -17.210938 Z M 63.363281 -17.210938 "/></g></g></g><g fill="#ffde59" fill-opacity="1"><g transform="translate(630.17812, 701.891575)"><g><path d="M 44.886719 5.664062 C 49.742188 4.628906 52.453125 3.035156 52.316406 0.0195312 C 65.0625 -85.484375 123.554688 -189.886719 130.84375 -191.441406 C 132.300781 -191.75 133.476562 -190.984375 133.789062 -189.527344 C 136.585938 -176.414062 110.480469 -91.617188 115.246094 -69.269531 C 118.042969 -56.152344 141.378906 -44.367188 154.984375 -47.269531 C 158.867188 -48.097656 162.929688 -50.488281 163.835938 -55.761719 C 186.046875 -132.617188 231.175781 -230.609375 246.238281 -233.824219 C 247.695312 -234.132812 248.871094 -233.367188 249.285156 -231.425781 C 251.152344 -222.679688 211.101562 -138.972656 220.21875 -96.222656 C 226.125 -68.535156 252.46875 -49.773438 272.386719 -54.019531 C 300.5625 -60.03125 340.027344 -113.136719 372.136719 -200.738281 C 370.6875 -207.539062 360.699219 -211.503906 355.839844 -210.46875 C 330.347656 -146.625 297.691406 -102.078125 281.660156 -98.660156 C 276.804688 -97.625 273.753906 -100.023438 272.40625 -106.335938 C 266.707031 -133.054688 293.992188 -217.085938 305.183594 -240.804688 C 306.714844 -243.164062 307.550781 -246.390625 306.824219 -249.789062 C 302.886719 -268.25 275.179688 -279.101562 260.121094 -275.890625 C 233.886719 -270.296875 196.464844 -210.003906 165.710938 -123.199219 L 162.203125 -122.960938 C 173.945312 -172.699219 181.117188 -198.605469 178.734375 -209.777344 C 176.042969 -222.410156 155.414062 -235.785156 142.785156 -233.09375 C 113.636719 -226.878906 66.691406 -118.339844 54.058594 -77.550781 L 50.554688 -77.3125 C 59.210938 -131.980469 79.957031 -201.414062 86.761719 -202.863281 C 88.011719 -204.144531 88.566406 -206.296875 88.257812 -207.753906 C 86.289062 -216.984375 67.046875 -228.625 52.472656 -225.515625 C 28.183594 -220.335938 -4.316406 -55.960938 3.453125 -19.527344 C 7.910156 1.359375 32.742188 8.253906 44.886719 5.664062 Z M 44.886719 5.664062 "/></g></g></g><g fill="#ffde59" fill-opacity="1"><g transform="translate(908.773219, 649.524342)"><g><path d="M 121.460938 -67.066406 C 123.445312 -66.9375 124.5 -67.859375 124.632812 -69.84375 C 149.714844 -124.921875 202.222656 -217.996094 243.855469 -267.492188 C 244.914062 -268.414062 245.472656 -269.375 245.574219 -270.859375 C 246.167969 -279.78125 227.433594 -297.460938 214.054688 -298.351562 C 210.582031 -298.582031 207.542969 -297.789062 204.902344 -295.476562 C 169.117188 -259.035156 101.605469 -127.632812 99.820312 -100.871094 C 98.566406 -82.035156 114.523438 -67.53125 121.460938 -67.066406 Z M 74.738281 21.414062 C 98.03125 22.96875 111.578125 6.449219 112.605469 -8.917969 C 113.496094 -22.296875 105.863281 -34.753906 87.527344 -35.976562 C 65.71875 -37.433594 52.667969 -20.878906 51.609375 -5.019531 C 50.71875 8.363281 57.390625 20.257812 74.738281 21.414062 Z M 74.738281 21.414062 "/></g></g></g></g></g><g transform="matrix(1, 0, 0, 1, 535, 729)"><g clip-path="url(#f177409561)"><g fill="#67a2bb" fill-opacity="1"><g transform="translate(12.621884, 171.366314)"><g><path d="M 24.78125 -3.59375 L 13.3125 -1.921875 L -6.09375 -52.125 L 4.125 -53.609375 L 17.265625 -18.25 L 18.140625 -18.375 L 22.171875 -56.21875 L 30.953125 -57.5 L 45.71875 -22.375 L 46.59375 -22.5 L 49.203125 -60.140625 L 59.078125 -61.578125 L 54.71875 -7.921875 L 43.21875 -6.265625 L 29.265625 -38.4375 L 28.53125 -38.34375 Z M 24.78125 -3.59375 "/></g></g></g><g fill="#67a2bb" fill-opacity="1"><g transform="translate(97.688883, 159.041338)"><g><path d="M 28.421875 -3.359375 C 23.660156 -2.660156 19.320312 -3.019531 15.40625 -4.4375 C 11.488281 -5.851562 8.207031 -8.410156 5.5625 -12.109375 C 2.925781 -15.804688 1.175781 -20.625 0.3125 -26.5625 C -0.539062 -32.507812 -0.226562 -37.625 1.25 -41.90625 C 2.738281 -46.195312 5.160156 -49.570312 8.515625 -52.03125 C 11.867188 -54.5 15.925781 -56.082031 20.6875 -56.78125 C 25.4375 -57.46875 29.757812 -57.109375 33.65625 -55.703125 C 37.5625 -54.296875 40.828125 -51.738281 43.453125 -48.03125 C 46.085938 -44.332031 47.832031 -39.507812 48.6875 -33.5625 C 49.550781 -27.625 49.25 -22.503906 47.78125 -18.203125 C 46.3125 -13.898438 43.90625 -10.519531 40.5625 -8.0625 C 37.21875 -5.613281 33.171875 -4.046875 28.421875 -3.359375 Z M 27.125 -12.28125 C 31.53125 -12.914062 34.6875 -14.8125 36.59375 -17.96875 C 38.507812 -21.132812 39.015625 -25.820312 38.109375 -32.03125 C 37.210938 -38.226562 35.398438 -42.582031 32.671875 -45.09375 C 29.941406 -47.601562 26.375 -48.539062 21.96875 -47.90625 C 17.539062 -47.257812 14.363281 -45.34375 12.4375 -42.15625 C 10.519531 -38.976562 10.007812 -34.289062 10.90625 -28.09375 C 11.8125 -21.882812 13.632812 -17.535156 16.375 -15.046875 C 19.113281 -12.554688 22.695312 -11.632812 27.125 -12.28125 Z M 27.125 -12.28125 "/></g></g></g><g fill="#67a2bb" fill-opacity="1"><g transform="translate(171.355916, 148.368052)"><g><path d="M 6.734375 -0.984375 L -0.78125 -52.90625 L 20.09375 -55.921875 C 25.457031 -56.703125 29.6875 -56.050781 32.78125 -53.96875 C 35.875 -51.894531 37.738281 -48.679688 38.375 -44.328125 C 38.832031 -41.179688 38.40625 -38.484375 37.09375 -36.234375 C 35.789062 -33.984375 33.628906 -32.097656 30.609375 -30.578125 L 30.703125 -29.828125 C 32.429688 -29.359375 33.898438 -28.5 35.109375 -27.25 C 36.328125 -26 37.582031 -24.0625 38.875 -21.4375 L 46.3125 -6.703125 L 35.765625 -5.1875 L 28.4375 -19.984375 C 27.6875 -21.453125 26.921875 -22.570312 26.140625 -23.34375 C 25.367188 -24.113281 24.445312 -24.625 23.375 -24.875 C 22.3125 -25.125 20.976562 -25.132812 19.375 -24.90625 L 13.875 -24.109375 L 17.015625 -2.46875 Z M 22.03125 -33.578125 C 27.007812 -34.304688 29.160156 -36.988281 28.484375 -41.625 C 27.804688 -46.34375 24.976562 -48.335938 20 -47.609375 L 10.671875 -46.265625 L 12.703125 -32.234375 Z M 22.03125 -33.578125 "/></g></g></g><g fill="#67a2bb" fill-opacity="1"><g transform="translate(236.996799, 138.857639)"><g><path d="M 9.5 -54.390625 L 15.765625 -11.0625 L 39.09375 -14.4375 L 40.34375 -5.84375 L 6.734375 -0.984375 L -0.78125 -52.90625 Z M 9.5 -54.390625 "/></g></g></g><g fill="#67a2bb" fill-opacity="1"><g transform="translate(296.138623, 130.288845)"><g><path d="M 17.921875 -55.609375 C 26.347656 -56.828125 33.097656 -55.582031 38.171875 -51.875 C 43.242188 -48.164062 46.398438 -42.015625 47.640625 -33.421875 C 48.878906 -24.847656 47.59375 -18.050781 43.78125 -13.03125 C 39.976562 -8.019531 33.863281 -4.90625 25.4375 -3.6875 L 6.734375 -0.984375 L -0.78125 -52.90625 Z M 23.578125 -12.21875 C 28.929688 -13 32.734375 -14.945312 34.984375 -18.0625 C 37.242188 -21.1875 37.929688 -25.789062 37.046875 -31.875 C 36.171875 -37.957031 34.207031 -42.175781 31.15625 -44.53125 C 28.113281 -46.882812 23.914062 -47.671875 18.5625 -46.890625 L 10.75 -45.765625 L 15.765625 -11.09375 Z M 23.578125 -12.21875 "/></g></g></g><g fill="#67a2bb" fill-opacity="1"><g transform="translate(368.740252, 119.76992)"><g/></g></g><g fill="#67a2bb" fill-opacity="1"><g transform="translate(402.986798, 114.808092)"><g><path d="M 24.78125 -3.59375 L 13.3125 -1.921875 L -6.09375 -52.125 L 4.125 -53.609375 L 17.265625 -18.25 L 18.140625 -18.375 L 22.171875 -56.21875 L 30.953125 -57.5 L 45.71875 -22.375 L 46.59375 -22.5 L 49.203125 -60.140625 L 59.078125 -61.578125 L 54.71875 -7.921875 L 43.21875 -6.265625 L 29.265625 -38.4375 L 28.53125 -38.34375 Z M 24.78125 -3.59375 "/></g></g></g><g fill="#67a2bb" fill-opacity="1"><g transform="translate(488.053797, 102.483116)"><g><path d="M 17.015625 -2.46875 L 6.734375 -0.984375 L -0.78125 -52.90625 L 9.5 -54.390625 Z M 17.015625 -2.46875 "/></g></g></g><g fill="#67a2bb" fill-opacity="1"><g transform="translate(528.941427, 96.559091)"><g><path d="M 17.921875 -55.609375 C 26.347656 -56.828125 33.097656 -55.582031 38.171875 -51.875 C 43.242188 -48.164062 46.398438 -42.015625 47.640625 -33.421875 C 48.878906 -24.847656 47.59375 -18.050781 43.78125 -13.03125 C 39.976562 -8.019531 33.863281 -4.90625 25.4375 -3.6875 L 6.734375 -0.984375 L -0.78125 -52.90625 Z M 23.578125 -12.21875 C 28.929688 -13 32.734375 -14.945312 34.984375 -18.0625 C 37.242188 -21.1875 37.929688 -25.789062 37.046875 -31.875 C 36.171875 -37.957031 34.207031 -42.175781 31.15625 -44.53125 C 28.113281 -46.882812 23.914062 -47.671875 18.5625 -46.890625 L 10.75 -45.765625 L 15.765625 -11.09375 Z M 23.578125 -12.21875 "/></g></g></g><g fill="#67a2bb" fill-opacity="1"><g transform="translate(601.543086, 86.040162)"><g><path d="M 13.71875 -25.28125 L 15.765625 -11.0625 L 40.546875 -14.65625 L 41.796875 -6.0625 L 6.734375 -0.984375 L -0.78125 -52.90625 L 33.71875 -57.890625 L 34.953125 -49.296875 L 10.734375 -45.796875 L 12.5 -33.65625 L 33.65625 -36.71875 L 34.875 -28.34375 Z M 13.71875 -25.28125 "/></g></g></g><g fill="#67a2bb" fill-opacity="1"><g transform="translate(140.47824, 256.137099)"><g><path d="M 6.734375 -0.984375 L -0.78125 -52.90625 L 20.09375 -55.921875 C 25.457031 -56.703125 29.6875 -56.050781 32.78125 -53.96875 C 35.875 -51.894531 37.738281 -48.679688 38.375 -44.328125 C 38.832031 -41.179688 38.40625 -38.484375 37.09375 -36.234375 C 35.789062 -33.984375 33.628906 -32.097656 30.609375 -30.578125 L 30.703125 -29.828125 C 32.429688 -29.359375 33.898438 -28.5 35.109375 -27.25 C 36.328125 -26 37.582031 -24.0625 38.875 -21.4375 L 46.3125 -6.703125 L 35.765625 -5.1875 L 28.4375 -19.984375 C 27.6875 -21.453125 26.921875 -22.570312 26.140625 -23.34375 C 25.367188 -24.113281 24.445312 -24.625 23.375 -24.875 C 22.3125 -25.125 20.976562 -25.132812 19.375 -24.90625 L 13.875 -24.109375 L 17.015625 -2.46875 Z M 22.03125 -33.578125 C 27.007812 -34.304688 29.160156 -36.988281 28.484375 -41.625 C 27.804688 -46.34375 24.976562 -48.335938 20 -47.609375 L 10.671875 -46.265625 L 12.703125 -32.234375 Z M 22.03125 -33.578125 "/></g></g></g><g fill="#67a2bb" fill-opacity="1"><g transform="translate(206.119123, 246.626686)"><g><path d="M 13.71875 -25.28125 L 15.765625 -11.0625 L 40.546875 -14.65625 L 41.796875 -6.0625 L 6.734375 -0.984375 L -0.78125 -52.90625 L 33.71875 -57.890625 L 34.953125 -49.296875 L 10.734375 -45.796875 L 12.5 -33.65625 L 33.65625 -36.71875 L 34.875 -28.34375 Z M 13.71875 -25.28125 "/></g></g></g><g fill="#67a2bb" fill-opacity="1"><g transform="translate(267.853472, 237.682273)"><g><path d="M 28.484375 -3.359375 C 23.703125 -2.671875 19.34375 -3.054688 15.40625 -4.515625 C 11.476562 -5.984375 8.191406 -8.5625 5.546875 -12.25 C 2.910156 -15.9375 1.164062 -20.707031 0.3125 -26.5625 C -0.53125 -32.40625 -0.210938 -37.46875 1.265625 -41.75 C 2.753906 -46.039062 5.175781 -49.445312 8.53125 -51.96875 C 11.894531 -54.488281 15.96875 -56.09375 20.75 -56.78125 C 25.75 -57.507812 30.132812 -57.148438 33.90625 -55.703125 C 37.675781 -54.253906 40.597656 -51.640625 42.671875 -47.859375 L 35.84375 -42.1875 L 34.953125 -42.09375 C 33.441406 -44.625 31.648438 -46.335938 29.578125 -47.234375 C 27.503906 -48.128906 24.988281 -48.363281 22.03125 -47.9375 C 17.71875 -47.3125 14.5625 -45.394531 12.5625 -42.1875 C 10.5625 -38.988281 10.007812 -34.289062 10.90625 -28.09375 C 11.800781 -21.914062 13.660156 -17.570312 16.484375 -15.0625 C 19.316406 -12.5625 22.890625 -11.625 27.203125 -12.25 C 33.953125 -13.226562 37.609375 -17.101562 38.171875 -23.875 L 39.046875 -24 L 47.1875 -21.15625 C 46.476562 -16.039062 44.585938 -12 41.515625 -9.03125 C 38.441406 -6.0625 34.097656 -4.171875 28.484375 -3.359375 Z M 28.484375 -3.359375 "/></g></g></g><g fill="#67a2bb" fill-opacity="1"><g transform="translate(335.873781, 227.827115)"><g><path d="M 17.015625 -2.46875 L 6.734375 -0.984375 L -0.78125 -52.90625 L 9.5 -54.390625 Z M 17.015625 -2.46875 "/></g></g></g><g fill="#67a2bb" fill-opacity="1"><g transform="translate(376.76144, 221.903085)"><g><path d="M 19.296875 -55.8125 C 23.015625 -56.34375 26.289062 -56.117188 29.125 -55.140625 C 31.957031 -54.171875 34.226562 -52.554688 35.9375 -50.296875 C 37.644531 -48.035156 38.734375 -45.285156 39.203125 -42.046875 C 39.671875 -38.796875 39.40625 -35.851562 38.40625 -33.21875 C 37.414062 -30.59375 35.695312 -28.40625 33.25 -26.65625 C 30.800781 -24.914062 27.71875 -23.78125 24 -23.25 L 14.203125 -21.828125 L 17.015625 -2.46875 L 6.734375 -0.984375 L -0.78125 -52.90625 Z M 21.484375 -31.1875 C 27.179688 -32.007812 29.640625 -35.128906 28.859375 -40.546875 C 28.066406 -45.992188 24.820312 -48.304688 19.125 -47.484375 L 10.671875 -46.265625 L 13.03125 -29.96875 Z M 21.484375 -31.1875 "/></g></g></g><g fill="#67a2bb" fill-opacity="1"><g transform="translate(441.301383, 212.552182)"><g><path d="M 13.71875 -25.28125 L 15.765625 -11.0625 L 40.546875 -14.65625 L 41.796875 -6.0625 L 6.734375 -0.984375 L -0.78125 -52.90625 L 33.71875 -57.890625 L 34.953125 -49.296875 L 10.734375 -45.796875 L 12.5 -33.65625 L 33.65625 -36.71875 L 34.875 -28.34375 Z M 13.71875 -25.28125 "/></g></g></g><g fill="#67a2bb" fill-opacity="1"><g transform="translate(503.035732, 203.607769)"><g><path d="M 23.125 -2.578125 C 19.519531 -2.054688 16.25 -2.035156 13.3125 -2.515625 C 10.382812 -3.003906 7.878906 -3.832031 5.796875 -5 C 3.722656 -6.175781 2.066406 -7.5625 0.828125 -9.15625 L 5.46875 -16.859375 L 6.34375 -16.984375 C 8.25 -14.890625 10.503906 -13.332031 13.109375 -12.3125 C 15.710938 -11.289062 18.625 -11.007812 21.84375 -11.46875 C 24.59375 -11.875 26.578125 -12.753906 27.796875 -14.109375 C 29.023438 -15.472656 29.492188 -17.175781 29.203125 -19.21875 C 29.023438 -20.445312 28.648438 -21.441406 28.078125 -22.203125 C 27.515625 -22.960938 26.664062 -23.5625 25.53125 -24 C 24.394531 -24.445312 22.910156 -24.753906 21.078125 -24.921875 L 14.171875 -25.484375 C 9.359375 -25.878906 5.632812 -27.144531 3 -29.28125 C 0.363281 -31.425781 -1.238281 -34.476562 -1.8125 -38.4375 C -2.238281 -41.375 -1.878906 -44.054688 -0.734375 -46.484375 C 0.398438 -48.921875 2.28125 -50.957031 4.90625 -52.59375 C 7.539062 -54.238281 10.8125 -55.34375 14.71875 -55.90625 C 18.71875 -56.488281 22.21875 -56.457031 25.21875 -55.8125 C 28.21875 -55.175781 30.859375 -53.914062 33.140625 -52.03125 L 29.09375 -44.3125 L 28.1875 -44.1875 C 26.5 -45.519531 24.648438 -46.429688 22.640625 -46.921875 C 20.640625 -47.421875 18.421875 -47.492188 15.984375 -47.140625 C 13.160156 -46.734375 11.085938 -45.925781 9.765625 -44.71875 C 8.453125 -43.507812 7.921875 -42.023438 8.171875 -40.265625 C 8.410156 -38.640625 9.113281 -37.414062 10.28125 -36.59375 C 11.445312 -35.769531 13.332031 -35.269531 15.9375 -35.09375 L 22.96875 -34.65625 C 28.164062 -34.320312 32.082031 -33.046875 34.71875 -30.828125 C 37.363281 -28.617188 38.984375 -25.46875 39.578125 -21.375 C 40.046875 -18.125 39.753906 -15.195312 38.703125 -12.59375 C 37.660156 -9.988281 35.828125 -7.816406 33.203125 -6.078125 C 30.578125 -4.335938 27.21875 -3.171875 23.125 -2.578125 Z M 23.125 -2.578125 "/></g></g></g></g></g></svg>